<?xml version="1.0" encoding="UTF-8"?>
<svg preserveAspectRatio="xMidYMid meet" role="img" aria-label="marxen Protección Integral" id="Capa_1" data-name="Capa 1" xmlns="http://www.w3.org/2000/svg" viewBox="78 340 694 166">
  <defs>
    <style>
      .cls-1 {
        fill: #62c5e2;
      }

      .cls-2 {
        fill: #4d4c4c;
      }

      .cls-3 {
        fill: #3e277f;
      }
    </style>
  </defs>
  <g>
    <path class="cls-2" d="M365.2,379.1c-5.9-5.4-14.3-8.1-25.2-8.1s-12.9,1-18.9,3c-6,2-11.1,4.8-15.4,8.4l5.1,8.5c3.4-3,7.6-5.4,12.5-7.2,4.9-1.8,10.1-2.7,15.5-2.7,7.9,0,13.8,1.9,17.9,5.8,4,3.8,6,9.3,6,16.5v5.1h-26.7c-8,0-14.4,1.1-19.1,3.3-4.8,2.2-8.2,5.1-10.2,8.6-2.1,3.6-3.1,7.6-3.1,11.9s1.2,9,3.7,12.7c2.5,3.7,6,6.6,10.6,8.6,4.6,2.1,10.1,3.1,16.4,3.1s14.6-1.7,19.9-5c3.9-2.4,6.9-5.4,9-9v13.2h10.9v-52.2c0-11-3-19.2-8.9-24.6ZM352.5,443.3c-4.6,2.9-10.2,4.4-16.6,4.4s-12-1.4-15.7-4.3c-3.7-2.9-5.6-6.7-5.6-11.5s1.6-7.8,4.7-10.7c3.1-2.9,8.8-4.3,16.9-4.3h26.4v13.8c-2.1,5.6-5.5,9.8-10.2,12.7Z"/>
    <path class="cls-2" d="M426.6,376.1c-4.8,2.9-8.3,6.9-10.7,12v-16.2h-10.9v84.1h11.4v-42.9c0-9.9,2.5-17.6,7.5-23,5-5.4,12-8.1,20.8-8.1s.9,0,1.3,0c.4,0,.9,0,1.3,0v-11c-8.2,0-15.1,1.7-20.7,5Z"/>
  </g>
  <g>
    <path class="cls-1" d="M163.2,434.9c-4,5.7-2.7,13.8,2.8,17.9,2.5,1.9,5.5,2.6,8.6,2.2,3.2-.5,6.1-2.3,8-5.1l7.6-10.9-14.9-21.4-12.1,17.4Z"/>
    <path class="cls-1" d="M291.2,434.9l-46-66.3c-4.6-6.6-11.1-10.4-18-10.4s-13.4,3.8-18,10.4l-14.3,20.6,14.9,21.5,17.4-25.1,44.6,64.2c2.3,3.3,5.9,5.2,9.7,5.2s4.9-.8,6.9-2.3c5.5-4.1,6.8-12.1,2.8-17.9Z"/>
    <path class="cls-3" d="M221.9,434.9l-46-66.3c-4.6-6.6-11.1-10.4-18-10.4s-13.4,3.8-18,10.4l-46,66.3c-4,5.7-2.7,13.8,2.8,17.9,2.5,1.9,5.5,2.6,8.6,2.2,3.2-.5,6.1-2.3,8-5.1l44.6-64.2,44.6,64.2c2.3,3.3,5.9,5.2,9.7,5.2s4.9-.8,6.9-2.3c5.5-4.1,6.8-12.1,2.8-17.9Z"/>
  </g>
  <g>
    <path class="cls-2" d="M638.3,375.5c-6.1-3.6-13.2-5.4-21.1-5.4s-14.8,1.8-21.1,5.5c-6.2,3.7-11.2,8.7-14.7,15.1-3.6,6.4-5.4,13.8-5.4,22.1s1.9,15.7,5.6,22.2c3.7,6.5,8.9,11.5,15.5,15.2,6.6,3.7,14.3,5.5,23.1,5.5s12.9-1.2,18.5-3.5c5.6-2.3,10.3-5.8,14-10.2l-6.4-7.4c-3.2,3.7-7,6.5-11.4,8.3-4.4,1.8-9.2,2.7-14.3,2.7s-12.3-1.4-17.4-4.1c-5.1-2.7-9-6.5-11.8-11.4-2.4-4.1-3.7-8.7-4.1-13.8h70.6c0-.6,0-1.3,0-1.8,0-.6,0-1.1,0-1.7,0-8.4-1.8-15.9-5.3-22.3-3.5-6.5-8.4-11.5-14.5-15ZM591,395.1c2.6-4.8,6.1-8.5,10.7-11.2,4.6-2.7,9.8-4,15.5-4s11,1.3,15.5,4c4.5,2.7,8,6.4,10.6,11.1,2.1,3.9,3.4,8.2,3.8,12.9h-59.9c.4-4.7,1.6-9,3.7-12.8Z"/>
    <path class="cls-2" d="M754.4,386c-2.9-5.3-7-9.3-12.2-11.9-5.2-2.6-11.2-3.9-18-3.9s-15.1,1.7-21,5.2c-4.7,2.8-8.4,6.4-11,10.9v-15.3h-10.9v84.1h11.4v-44.2c0-6.4,1.2-11.9,3.6-16.4,2.4-4.5,5.8-8,10.2-10.4,4.4-2.4,9.6-3.6,15.6-3.6s14.2,2.3,18.7,6.8c4.4,4.5,6.6,11.2,6.6,20.1v47.7h11.4v-48.8c0-8.1-1.5-14.8-4.4-20.2Z"/>
  </g>
  <g>
    <path class="cls-1" d="M529.9,406.7l32.2-25.6c5.4-4.3,6.4-12.3,2.2-17.9-2-2.7-4.9-4.4-8.1-4.8-.5,0-.9,0-1.4,0-2.6,0-5.1.9-7.2,2.6l-32.6,25.9,2.1,1.6c5.8,4.6,9.2,11.3,9.2,18.3s-3.3,13.7-9.2,18.3l-2,1.6,32.6,25.9c2.1,1.7,4.6,2.5,7.2,2.5,3.7,0,7.2-1.8,9.5-4.9,4.2-5.6,3.1-13.7-2.2-17.9l-32.2-25.6Z"/>
    <path class="cls-3" d="M514.6,422.3c4.9-3.9,7.8-9.6,7.8-15.6s-2.8-11.7-7.8-15.6l-38.1-30.3c-2.1-1.7-4.6-2.6-7.2-2.6s-.9,0-1.4,0c-3.2.4-6.1,2.1-8.1,4.8-4.2,5.6-3.1,13.7,2.2,17.9l32.2,25.6-32.2,25.6c-5.4,4.3-6.4,12.3-2.2,17.9,3.9,5.3,11.6,6.4,16.7,2.3l38.1-30.3ZM498.9,414.6v-3.7s0,0,0,0v3.7Z"/>
    <circle class="cls-3" cx="512.1" cy="359.7" r="11.5"/>
  </g>
  <g>
    <path class="cls-2" d="M474.1,474.3c-1.4-.6-3-.9-4.9-.9h-8.4v22.4h2.4v-7.1h6c1.9,0,3.5-.3,4.9-.9,1.4-.6,2.4-1.5,3.2-2.6.7-1.1,1.1-2.5,1.1-4.1s-.4-3-1.1-4.1c-.7-1.1-1.8-2-3.2-2.6ZM474.3,485.2c-1.2,1-2.9,1.5-5.1,1.5h-6v-11.2h6c2.2,0,3.9.5,5.1,1.5,1.2,1,1.7,2.4,1.7,4.2s-.6,3.1-1.7,4.1Z"/>
    <path class="cls-2" d="M484.8,482.3v-3.3h-2.2v16.8h2.3v-8.6c0-2,.5-3.5,1.5-4.6,1-1.1,2.4-1.6,4.2-1.6s.2,0,.3,0c0,0,.2,0,.3,0v-2.2c-1.6,0-3,.3-4.1,1-1,.6-1.7,1.4-2.1,2.4Z"/>
    <path class="cls-2" d="M506.3,480c-1.3-.7-2.8-1.1-4.4-1.1s-3.1.4-4.4,1.1c-1.3.7-2.3,1.7-3,3-.7,1.3-1.1,2.8-1.1,4.5s.4,3.1,1.1,4.4c.7,1.3,1.8,2.3,3,3.1,1.3.7,2.7,1.1,4.4,1.1s3.1-.4,4.4-1.1c1.3-.7,2.3-1.8,3.1-3s1.1-2.8,1.1-4.4-.4-3.2-1.1-4.4-1.8-2.3-3-3ZM507.4,490.9c-.5,1-1.3,1.8-2.2,2.3-.9.5-2,.8-3.2.8s-2.3-.3-3.2-.8c-.9-.5-1.7-1.3-2.2-2.3-.6-1-.8-2.1-.8-3.4s.3-2.5.8-3.5c.6-1,1.3-1.7,2.2-2.3.9-.5,2-.8,3.2-.8s2.3.3,3.2.8c.9.5,1.7,1.3,2.2,2.3.5,1,.8,2.1.8,3.5s-.3,2.5-.8,3.4Z"/>
    <path class="cls-2" d="M520.7,494.1c-.9,0-1.7-.3-2.2-.8-.5-.5-.8-1.3-.8-2.3v-10.1h5.1v-1.9h-5.1v-3.7h-2.3v3.7h-3v1.9h3v10.2c0,1.6.4,2.8,1.3,3.6.9.9,2.1,1.3,3.7,1.3s1.3,0,1.9-.3,1.2-.5,1.6-.9l-.8-1.6c-.7.6-1.5.9-2.5.9Z"/>
    <path class="cls-2" d="M538.3,480c-1.2-.7-2.6-1.1-4.2-1.1s-3,.4-4.2,1.1c-1.2.7-2.2,1.7-2.9,3s-1.1,2.8-1.1,4.4.4,3.1,1.1,4.4c.7,1.3,1.8,2.3,3.1,3,1.3.7,2.9,1.1,4.6,1.1s2.6-.2,3.7-.7c1.1-.5,2.1-1.2,2.8-2l-1.3-1.5c-.6.7-1.4,1.3-2.3,1.7-.9.4-1.8.5-2.9.5s-2.5-.3-3.5-.8c-1-.5-1.8-1.3-2.4-2.3-.5-.8-.7-1.7-.8-2.8h14.1c0-.1,0-.2,0-.4,0-.1,0-.2,0-.3,0-1.7-.4-3.2-1.1-4.5-.7-1.3-1.7-2.3-2.9-3ZM528.8,483.9c.5-1,1.2-1.7,2.1-2.2.9-.5,2-.8,3.1-.8s2.2.3,3.1.8c.9.5,1.6,1.3,2.1,2.2.4.8.7,1.6.7,2.6h-12c0-.9.3-1.8.7-2.6Z"/>
    <path class="cls-2" d="M550.6,481.7c1-.5,2-.8,3.2-.8s1.9.2,2.8.6c.9.4,1.6,1,2.1,1.9l1.7-1.2c-.7-1.1-1.6-1.9-2.7-2.5-1.2-.6-2.4-.8-3.9-.8s-3.2.4-4.5,1.1c-1.3.7-2.3,1.7-3.1,3-.7,1.3-1.1,2.8-1.1,4.5s.4,3.1,1.1,4.4c.7,1.3,1.8,2.3,3.1,3,1.3.7,2.8,1.1,4.5,1.1s2.7-.3,3.9-.8c1.2-.6,2.1-1.4,2.7-2.5l-1.7-1.2c-.6.8-1.3,1.5-2.1,1.9-.9.4-1.8.6-2.8.6s-2.3-.3-3.2-.8c-1-.5-1.7-1.3-2.3-2.3-.6-1-.8-2.1-.8-3.5s.3-2.5.8-3.5c.6-1,1.3-1.7,2.3-2.3Z"/>
    <path class="cls-2" d="M568.3,481.7c1-.5,2-.8,3.2-.8s1.9.2,2.8.6c.9.4,1.6,1,2.1,1.9l1.7-1.2c-.7-1.1-1.6-1.9-2.7-2.5-1.2-.6-2.4-.8-3.9-.8s-3.2.4-4.5,1.1c-1.3.7-2.3,1.7-3.1,3-.7,1.3-1.1,2.8-1.1,4.5s.4,3.1,1.1,4.4c.7,1.3,1.8,2.3,3.1,3,1.3.7,2.8,1.1,4.5,1.1s2.7-.3,3.9-.8c1.2-.6,2.1-1.4,2.7-2.5l-1.7-1.2c-.6.8-1.3,1.5-2.1,1.9-.9.4-1.8.6-2.8.6s-2.3-.3-3.2-.8c-1-.5-1.7-1.3-2.3-2.3-.6-1-.8-2.1-.8-3.5s.3-2.5.8-3.5c.6-1,1.3-1.7,2.3-2.3Z"/>
    <rect class="cls-2" x="582.4" y="479" width="2.3" height="16.8"/>
    <path class="cls-2" d="M583.5,472.1c-.5,0-.9.2-1.2.5s-.5.7-.5,1.1.2.8.5,1.2.7.5,1.2.5.9-.2,1.2-.5.5-.7.5-1.2-.2-.8-.5-1.1-.7-.4-1.2-.4Z"/>
    <polygon class="cls-2" points="603.2 472.4 600.2 472.4 595.8 476.4 598 476.4 603.2 472.4"/>
    <path class="cls-2" d="M602.3,480c-1.3-.7-2.8-1.1-4.4-1.1s-3.1.4-4.4,1.1c-1.3.7-2.3,1.7-3,3-.7,1.3-1.1,2.8-1.1,4.5s.4,3.1,1.1,4.4c.7,1.3,1.8,2.3,3,3.1,1.3.7,2.7,1.1,4.4,1.1s3.1-.4,4.4-1.1c1.3-.7,2.3-1.8,3.1-3s1.1-2.8,1.1-4.4-.4-3.2-1.1-4.4-1.8-2.3-3-3ZM603.3,490.9c-.5,1-1.3,1.8-2.2,2.3-.9.5-2,.8-3.2.8s-2.3-.3-3.2-.8c-.9-.5-1.7-1.3-2.2-2.3-.6-1-.8-2.1-.8-3.4s.3-2.5.8-3.5c.6-1,1.3-1.7,2.2-2.3.9-.5,2-.8,3.2-.8s2.3.3,3.2.8c.9.5,1.7,1.3,2.2,2.3.5,1,.8,2.1.8,3.5s-.3,2.5-.8,3.4Z"/>
    <path class="cls-2" d="M623.3,479.7c-1-.5-2.2-.8-3.6-.8s-3,.3-4.2,1c-.9.6-1.7,1.3-2.2,2.2v-3.1h-2.2v16.8h2.3v-8.8c0-1.3.2-2.4.7-3.3s1.2-1.6,2-2.1,1.9-.7,3.1-.7,2.8.5,3.7,1.4c.9.9,1.3,2.2,1.3,4v9.5h2.3v-9.8c0-1.6-.3-3-.9-4-.6-1.1-1.4-1.9-2.4-2.4Z"/>
    <rect class="cls-2" x="641.6" y="473.4" width="2.4" height="22.4"/>
    <path class="cls-2" d="M663,479.7c-1-.5-2.2-.8-3.6-.8s-3,.3-4.2,1c-.9.6-1.7,1.3-2.2,2.2v-3.1h-2.2v16.8h2.3v-8.8c0-1.3.2-2.4.7-3.3s1.2-1.6,2-2.1,1.9-.7,3.1-.7,2.8.5,3.7,1.4c.9.9,1.3,2.2,1.3,4v9.5h2.3v-9.8c0-1.6-.3-3-.9-4-.6-1.1-1.4-1.9-2.4-2.4Z"/>
    <path class="cls-2" d="M678,494.1c-.9,0-1.7-.3-2.2-.8-.5-.5-.8-1.3-.8-2.3v-10.1h5.1v-1.9h-5.1v-3.7h-2.3v3.7h-3v1.9h3v10.2c0,1.6.4,2.8,1.3,3.6.9.9,2.1,1.3,3.7,1.3s1.3,0,1.9-.3,1.2-.5,1.6-.9l-.8-1.6c-.7.6-1.5.9-2.5.9Z"/>
    <path class="cls-2" d="M695.6,480c-1.2-.7-2.6-1.1-4.2-1.1s-3,.4-4.2,1.1c-1.2.7-2.2,1.7-2.9,3s-1.1,2.8-1.1,4.4.4,3.1,1.1,4.4c.7,1.3,1.8,2.3,3.1,3,1.3.7,2.9,1.1,4.6,1.1s2.6-.2,3.7-.7c1.1-.5,2.1-1.2,2.8-2l-1.3-1.5c-.6.7-1.4,1.3-2.3,1.7-.9.4-1.8.5-2.9.5s-2.5-.3-3.5-.8c-1-.5-1.8-1.3-2.4-2.3-.5-.8-.7-1.7-.8-2.8h14.1c0-.1,0-.2,0-.4,0-.1,0-.2,0-.3,0-1.7-.4-3.2-1.1-4.5-.7-1.3-1.7-2.3-2.9-3ZM686.1,483.9c.5-1,1.2-1.7,2.1-2.2.9-.5,2-.8,3.1-.8s2.2.3,3.1.8c.9.5,1.6,1.3,2.1,2.2.4.8.7,1.6.7,2.6h-12c0-.9.3-1.8.7-2.6Z"/>
    <path class="cls-2" d="M717.6,482.2c-.7-1-1.5-1.9-2.6-2.4-1.2-.6-2.5-.9-4-.9s-3,.3-4.3,1-2.3,1.6-3,2.9-1.1,2.6-1.1,4.2.4,3,1.1,4.3,1.7,2.2,3,2.9c1.3.7,2.7,1,4.3,1s2.8-.3,4-1c1-.6,1.9-1.3,2.5-2.3v2.1c0,2.1-.5,3.6-1.5,4.6-1,1-2.6,1.5-4.7,1.5s-2.5-.2-3.7-.6c-1.2-.4-2.1-1-2.9-1.7l-1.2,1.7c.9.8,2,1.5,3.4,1.9,1.4.4,2.9.7,4.4.7,2.8,0,4.9-.7,6.3-2,1.4-1.4,2.1-3.5,2.1-6.4v-14.8h-2.2v3.2ZM714.5,492.4c-1,.5-2.1.8-3.3.8s-2.3-.3-3.3-.8c-1-.5-1.7-1.2-2.3-2.2-.5-.9-.8-2-.8-3.2s.3-2.3.8-3.2c.5-.9,1.3-1.6,2.3-2.2,1-.5,2.1-.8,3.3-.8s2.3.3,3.3.8c1,.5,1.7,1.2,2.3,2.2.6.9.8,2,.8,3.2s-.3,2.3-.8,3.2c-.6.9-1.3,1.7-2.3,2.2Z"/>
    <path class="cls-2" d="M728.3,482.3v-3.3h-2.2v16.8h2.3v-8.6c0-2,.5-3.5,1.5-4.6,1-1.1,2.4-1.6,4.2-1.6s.2,0,.3,0c0,0,.2,0,.3,0v-2.2c-1.6,0-3,.3-4.1,1-1,.6-1.7,1.4-2.1,2.4Z"/>
    <path class="cls-2" d="M743.5,478.9c-1.3,0-2.6.2-3.8.6-1.2.4-2.2,1-3.1,1.7l1,1.7c.7-.6,1.5-1.1,2.5-1.4,1-.4,2-.5,3.1-.5,1.6,0,2.8.4,3.6,1.2s1.2,1.9,1.2,3.3v1h-5.3c-1.6,0-2.9.2-3.8.7s-1.6,1-2,1.7c-.4.7-.6,1.5-.6,2.4s.2,1.8.7,2.5c.5.7,1.2,1.3,2.1,1.7.9.4,2,.6,3.3.6s2.9-.3,4-1c.8-.5,1.4-1.1,1.8-1.8v2.6h2.2v-10.4c0-2.2-.6-3.8-1.8-4.9-1.2-1.1-2.9-1.6-5-1.6ZM746.1,493.3c-.9.6-2,.9-3.3.9s-2.4-.3-3.1-.9-1.1-1.3-1.1-2.3.3-1.6.9-2.1c.6-.6,1.8-.9,3.4-.9h5.3v2.8c-.4,1.1-1.1,2-2,2.5Z"/>
    <rect class="cls-2" x="756.5" y="472.1" width="2.3" height="23.8"/>
  </g>
</svg>